PathFileType	4	(X/Y/Z)	Patient4_TMGait_0pt4_02_right_21.trc.trc
DataRate	CameraRate	NumFrames	NumMarkers	Units	OrigDataRate	OrigDataStartFrame	OrigNumFrames
73.298429319372	73.298429319372	4	33	mm	73.298429319372	89	       141
Frame#	Time	Sacral			L.Shoulder			Chest			R.Shoulder			Neck			R.ASIS			L.ASIS			R.Thigh.Superior			R.Thigh.Lateral			R.Thigh.Inferior			R.Patella			L.Thigh.Superior			L.Thigh.Lateral			L.Thigh.Inferior			L.Patella			L.Shank.Superior			L.Shank.Lateral			L.Shank.Inferior			R.Shank.Superior			R.Shank.Lateral			R.Shank.Inferior			R.Heel			R.Midfoot.Superior			R.Midfoot.Lateral			R.Toe			L.Heel			L.Midfoot.Lateral			L.Midfoot.Superior			L.Toe			L.Elbow			L.Wrist			R.Elbow			R.Wrist			
		X1	Y1	Z1	X2	Y2	Z2	X3	Y3	Z3	X4	Y4	Z4	X5	Y5	Z5	X6	Y6	Z6	X7	Y7	Z7	X8	Y8	Z8	X9	Y9	Z9	X10	Y10	Z10	X11	Y11	Z11	X12	Y12	Z12	X13	Y13	Z13	X14	Y14	Z14	X15	Y15	Z15	X16	Y16	Z16	X17	Y17	Z17	X18	Y18	Z18	X19	Y19	Z19	X20	Y20	Z20	X21	Y21	Z21	X22	Y22	Z22	X23	Y23	Z23	X24	Y24	Z24	X25	Y25	Z25	X26	Y26	Z26	X27	Y27	Z27	X28	Y28	Z28	X29	Y29	Z29	X30	Y30	Z30	X31	Y31	Z31	X32	Y32	Z32	X33	Y33	Z33	

89	28.690571428571	892.887232234145	998.828795416452	477.163219986276	1030.784478374673	1431.175966443772	283.736705444826	1153.466821919728	1369.499123160757	433.294475390484	1085.613732853300	1440.521452562338	614.678041024626	1027.901602066519	1493.820712182849	439.436491550391	1129.423301139660	938.148830368963	575.066623323524	1097.234939849439	964.987096548796	303.483926252591	1155.657135852287	728.414525286793	546.513138232567	1071.739112716648	620.462973596137	611.262943114245	1143.180601883938	561.693225716912	530.832743737007	1132.946134147096	457.026448828599	546.273775881857	1167.198598493218	763.078489045554	329.235070564488	1090.344765415402	638.523098219300	269.426204124973	1184.620071006108	569.727719234001	328.962265683595	1191.417133500912	500.827919835764	337.031144158957	1170.641642168748	426.638929094034	327.657039948064	1088.919623106550	306.800655479412	275.579821434935	1151.205709657460	198.729012020212	343.699927600230	1064.132698729372	385.205234517947	552.489530211930	954.515088907015	325.790385287948	618.448451417698	949.829943723841	219.956550222004	560.044068652115	757.164620990544	113.132034028190	541.645755369372	937.566676197507	106.813684249745	566.587825381839	836.863407358399	73.719975653074	608.713901547032	1033.819892962992	36.043460497711	583.264510387129	1034.772827769523	38.264831462108	384.233352294064	1108.135319051198	35.469694198712	302.795647885368	1189.100910872685	99.735825215932	329.234804979913	1318.637846407534	52.206943372317	300.862259447823	992.797824959764	1077.938834582030	172.072478988050	1071.224357407806	827.445929343748	166.188368714274	1156.900806020597	1101.894128216216	734.611390446281	1384.241254981809	1034.573250909445	642.189737394134	
90	28.704214285714	892.188655250878	998.551059316276	474.394802744152	1032.089750487799	1430.917608743062	280.897860934728	1153.558489909794	1369.360539302613	431.443065879605	1084.500716393037	1440.577245454199	612.317427222856	1028.037476484073	1493.742776913645	436.571301674411	1128.577208247883	937.978731258907	573.185271546873	1097.501047980848	965.300488600065	301.627688048965	1160.521384723875	730.129006556051	544.583180630247	1080.061581174260	620.306003467793	609.660608821168	1153.638924680622	562.898844043922	529.555386234048	1145.003644200875	456.797934026130	545.974069930398	1166.396596234384	762.268902162066	327.360848788472	1088.879539204576	638.384978782287	267.685062485996	1182.175279840125	569.021520392946	327.843645521923	1188.413128542072	500.195699612265	336.228275542592	1167.478225035129	425.949492585679	326.876967176698	1085.497802339660	306.358753284341	274.728630510525	1146.667425104522	198.230601774693	343.589810664594	1074.002383462392	385.786764353936	552.132941420639	962.070182621001	330.318258276195	617.626983443074	954.396634103379	224.276691199204	560.239565711279	758.476946103043	126.002110516927	541.764189101860	937.777545849506	109.490441311533	567.114709100135	835.469220773360	81.967052513849	608.716230201727	1028.858307887736	35.250729442334	583.328415166977	1029.168482896300	38.196802861724	384.177340134289	1102.511692197940	35.312972399926	302.710509771017	1183.493763036064	99.501879692065	329.253397634771	1313.025253137860	52.034353633300	300.819146968977	1002.216385134373	1077.385246747539	166.996252863787	1089.041520387998	829.648301416952	160.956860721283	1147.162663740891	1100.058433866447	732.906878998799	1371.466167335257	1016.969732925192	644.560647124455	
91	28.717857142857	891.342409719978	998.166928854909	471.725111496977	1033.428713287932	1430.579571176233	278.220370464381	1153.612415827186	1369.099333794767	429.790162108873	1083.291283397017	1440.469895676480	610.145145874547	1028.187903901242	1493.578453145194	433.878606345426	1127.642270164531	937.728691494555	571.428801772581	1097.651506780626	965.563181856266	299.847105494400	1165.499295997930	732.162766643611	542.670490718609	1088.749775754224	620.472682844161	608.187221382349	1164.460039839834	564.586676759991	528.395725610242	1157.547623813156	457.172874106932	545.618738296892	1165.530902595557	761.468098810671	325.843932417375	1087.647193418603	638.257590992482	266.013863100915	1179.862556654157	568.343364902877	326.979536448989	1185.544195668194	499.525937866840	335.585038307052	1164.419406335891	425.225079331264	326.217804598739	1082.198404444261	305.902579210649	273.936936628227	1142.185814461313	197.710536087494	343.554475579205	1084.537941468712	386.833807274769	551.738875974330	970.473292319164	335.306456537441	616.781166892622	959.808794304419	229.184181288193	560.372688325530	761.094728678415	140.076076611199	541.694425634573	938.619895162702	112.745019208567	567.592800307755	834.881101871329	91.323342593547	608.588754068980	1023.947999441338	34.274291715139	583.457206127777	1023.567682697660	38.132263579501	384.116566033625	1096.899405619364	35.182248879941	302.638002496812	1177.913927076176	99.244685267838	329.314259880610	1307.421366179168	51.836012223223	300.797725992475	1011.644399481338	1077.050053856700	162.046862768528	1106.947107379466	832.393624910664	156.143986902307	1137.106041413721	1098.170754769498	731.219279307815	1357.319737843307	999.140269220816	647.646444244636	
92	28.731500000000	890.390312018666	997.724244971308	469.157863541668	1034.764820356878	1430.206181006064	275.731400529601	1153.622738435974	1368.761621945638	428.338264028878	1082.001527327977	1440.236815737012	608.172875046551	1028.361480112034	1493.368668788585	431.381402422010	1126.638572436498	937.466558794797	569.807739788587	1097.715381874081	965.797050173905	298.144107178378	1170.443125327686	734.546406287584	540.786445167602	1097.589689308866	621.046108032257	606.843123183608	1175.386932703814	566.824167116541	527.342404192299	1170.343309828724	458.218058686065	545.199157862092	1164.663144652850	760.718760540429	324.610679658122	1086.598608111104	638.145167210153	264.436689571022	1177.693288705164	567.698018401502	326.302627971076	1182.828881296347	498.840200740741	335.078809602674	1161.479236820146	424.486794078182	325.670433032808	1079.014874646343	305.461158022307	273.211628805877	1137.763057904336	197.187644541104	343.580451305576	1095.522773223625	388.403205132620	551.285829180466	979.531473998872	340.732419441129	615.895667080404	965.960431992444	234.642152156058	560.417130234493	765.015043938575	155.099956074595	541.377341258067	940.082097215476	116.589281661703	567.980514999301	835.143011535954	101.652471771258	608.289034091783	1019.165429310624	33.145381286754	583.641847248137	1017.993221104506	38.078555247171	384.044990715867	1091.320169513053	35.083892371516	302.570901403927	1172.380011502664	98.985772896872	329.402533339706	1301.846785958982	51.635142110586	300.786964684548	1021.033888281269	1076.966460046421	157.264209728303	1124.859890624561	835.719766209063	151.790081390039	1126.810736792817	1096.284621499906	729.536393393932	1341.773918796547	981.231057947481	651.389739018757	
